Coordinates
version=1
nRows=19
nColumns=24
inDegrees=yes

Units are S.I. units (second, meters, Newtons, ...)
Angles are in degrees.

endheader
time	pelvis_tilt	pelvis_list	pelvis_rotation	pelvis_tx	pelvis_ty	pelvis_tz	hip_flexion_r	hip_adduction_r	hip_rotation_r	knee_angle_r	ankle_angle_r	subtalar_angle_r	mtp_angle_r	hip_flexion_l	hip_adduction_l	hip_rotation_l	knee_angle_l	ankle_angle_l	subtalar_angle_l	mtp_angle_l	lumbar_extension	lumbar_bending	lumbar_rotation
      5.92000000	    -12.34564095	      8.05507709	      3.56412891	     -0.30715481	     -0.03615487	      2.07250315	     13.99735892	    -13.80091027	    -11.79996155	    -56.61568165	    -18.34013543	      3.78627296	     -5.34561534	     30.87348745	     14.13350536	     -2.35967260	    -19.86731969	      9.11845901	     -0.35124335	    -58.44206944	      9.30301210	     -8.77002809	     -0.59750962
      5.93000000	    -12.38544837	      8.19767622	      3.55679782	     -0.29491360	     -0.03439020	      2.07189789	     15.89446810	    -13.86926441	    -10.85647690	    -58.60045563	    -17.02019412	      1.19415975	     -5.75145534	     29.81789567	     14.26817643	     -2.65027272	    -19.43547446	      9.78000928	      0.02867197	    -58.46489114	      9.22106899	     -8.89455397	     -0.84308136
      5.94000000	    -12.44640502	      8.20072390	      3.61073179	     -0.28274921	     -0.03253403	      2.07139874	     17.80958693	    -13.71014922	     -9.90394404	    -60.37759717	    -14.69375430	     -0.54247728	    -10.78523890	     28.79625470	     14.23340473	     -2.99852169	    -19.03679299	     10.89030290	      0.77815287	    -60.66878010	      9.16155975	     -8.90287069	     -1.21535944
      5.95000000	    -12.35487839	      8.15734267	      3.53718636	     -0.27068672	     -0.03033290	      2.07093549	     19.53749994	    -13.44656100	     -8.97893982	    -61.67914840	    -13.36548864	     -2.25712534	    -10.89412562	     27.54965932	     14.13388039	     -3.22989834	    -18.50467293	     11.51265605	      1.30329254	    -60.73015575	      8.94967331	     -8.80520109	     -1.45068769
      5.96000000	    -12.37864309	      8.03222648	      3.54425573	     -0.25871413	     -0.02826514	      2.07035096	     21.36177111	    -13.09840574	     -8.12326021	    -62.75386489	    -11.62315350	     -3.24848458	    -13.65345419	     26.37284332	     14.01496895	     -3.18948031	    -17.87188549	     12.26246325	      1.67768496	    -62.19460772	      8.85660964	     -8.63317766	     -1.78640233
      5.97000000	    -12.20057055	      7.92075045	      3.51932234	     -0.24680484	     -0.02598297	      2.06965492	     22.88930796	    -12.77050332	     -7.36390807	    -63.43917680	    -10.39548307	     -3.95770308	    -13.56919761	     24.87328866	     13.97291867	     -2.79544929	    -17.03454085	     12.53690802	      1.56435860	    -62.12460041	      8.54300257	     -8.44190709	     -2.10178679
      5.98000000	    -12.03588502	      7.77145285	      3.55521701	     -0.23486032	     -0.02382479	      2.06879657	     24.33885283	    -12.44098507	     -6.75012620	    -63.82144984	     -9.09885854	     -4.26390459	    -13.67705798	     23.32119522	     13.95770450	     -2.14539698	    -16.07622516	     12.66513219	      1.15670081	    -61.87312075	      8.25933839	     -8.21001345	     -2.44174537
      5.99000000	    -11.88975508	      7.48853451	      3.67103180	     -0.22300915	     -0.02179930	      2.06780970	     25.69809440	    -11.99347530	     -6.29768199	    -63.87135094	     -7.78702742	     -4.27277114	    -13.76846942	     21.80624790	     13.84527524	     -1.30676072	    -15.14165943	     12.72651719	      0.62041237	    -61.47498911	      7.98442763	     -7.85115183	     -2.84306289
      6.00000000	    -11.63419587	      7.10478583	      3.83828563	     -0.21126438	     -0.01979464	      2.06677441	     26.82928081	    -11.44544864	     -5.96808962	    -63.61253785	     -6.23558124	     -3.97171185	    -15.41268392	     20.22913000	     13.63600995	     -0.43952552	    -14.31415896	     12.38097557	      0.10000025	    -58.16744538	      7.57739562	     -7.39308123	     -3.34956542
      6.01000000	    -11.60342969	      6.68383178	      4.08143527	     -0.19958915	     -0.01820122	      2.06569224	     28.11737544	    -10.91829771	     -5.78328587	    -63.05159617	     -5.03678348	     -3.71568065	    -15.23899740	     18.95665578	     13.38275810	      0.40281026	    -13.54355268	     12.48546677	     -0.38524991	    -58.05862553	      7.41415273	     -6.92983546	     -3.82035068
      6.02000000	    -11.46670771	      6.18444272	      4.41026065	     -0.18799505	     -0.01663315	      2.06455098	     29.15614698	    -10.37041020	     -5.80239428	    -62.16329711	     -3.92436178	     -3.42295944	    -15.14500440	     17.63308900	     13.03545767	      1.22368809	    -12.88567682	     12.68153117	     -0.69581751	    -57.83911799	      7.12548885	     -6.39860225	     -4.37861706
      6.03000000	    -11.32248727	      5.66415964	      4.77649743	     -0.17648825	     -0.01521916	      2.06336743	     30.10075574	     -9.84624090	     -5.92852984	    -61.00684666	     -2.93600349	     -3.14686962	    -15.23113817	     16.34016444	     12.65211027	      2.03834328	    -12.27208360	     12.87659334	     -0.99396028	    -57.51104083	      6.82297650	     -5.84933278	     -4.95367271
      6.04000000	    -11.07743072	      5.18975718	      5.12779386	     -0.16498178	     -0.01389907	      2.06217716	     30.85488127	     -9.39440633	     -6.10761867	    -59.62828833	     -1.84826990	     -2.80214473	    -16.19058411	     14.92880262	     12.29050690	      2.86523340	    -11.61974654	     12.91435862	     -1.42410951	    -56.60130338	      6.42328344	     -5.32940846	     -5.39263774
      6.05000000	    -11.15269730	      4.63472138	      5.65524128	     -0.15368750	     -0.01316213	      2.06089923	     31.88183385	     -8.99052140	     -6.51520910	    -58.04015954	     -1.04587273	     -2.66902321	    -16.50851465	     14.00677015	     11.85114153	      3.51691494	    -11.21142109	     13.30075369	     -1.39394680	    -56.31329226	      6.34674700	     -4.79164856	     -6.07062451
      6.06000000	    -11.02681271	      4.20471212	      6.06057048	     -0.14230688	     -0.01242587	      2.05975125	     32.63947031	     -8.62962181	     -6.69269305	    -56.35196129	      0.73314734	     -2.00400774	    -22.32433450	     12.80226696	     11.49218400	      4.20068060	    -10.66519014	     13.21425186	     -1.66358795	    -54.16027146	      6.06917200	     -4.34172138	     -6.54176699
      6.07000000	    -11.05111672	      3.74237149	      6.50163266	     -0.13098086	     -0.01202808	      2.05868274	     33.45113963	     -8.29916065	     -7.07778443	    -54.32975204	      1.38407474	     -1.93773121	    -22.53147467	     11.82205315	     11.07008823	      4.75786953	    -10.20426399	     13.60403699	     -1.66686991	    -54.10188291	      5.95918934	     -3.88907184	     -7.04776717
      6.08000000	    -10.96314430	      3.35750301	      6.82953686	     -0.11957999	     -0.01173053	      2.05780294	     34.06066222	     -7.95556099	     -7.24164725	    -52.17324357	      2.93798654	     -1.37636695	    -27.67033513	     10.70208767	     10.66812373	      5.21017779	     -9.70151087	     13.97598922	     -1.67542782	    -53.92732229	      5.73938374	     -3.49315301	     -7.40985859
      6.09000000	    -11.01998667	      2.95562451	      7.13820828	     -0.10822882	     -0.01175188	      2.05709054	     34.72830758	     -7.60812216	     -7.51424175	    -49.72403537	      3.50376101	     -1.22466300	    -27.90857676	      9.79231650	     10.23016424	      5.55673938	     -9.27207634	     14.42417753	     -1.56661190	    -53.81588474	      5.67894739	     -3.10949794	     -7.76486893
      6.10000000	    -10.98878544	      2.58240292	      7.37571587	     -0.09681801	     -0.01185380	      2.05653630	     35.19362709	     -7.25097367	     -7.76526829	    -47.06577703	      4.10859862	     -0.90412826	    -28.53651747	      8.78277595	      9.77668517	      5.80766107	     -8.82894642	     14.91147080	     -1.40610092	    -53.68386639	      5.52943228	     -2.73836420	     -8.05218538
